<svg viewBox="0 0 1153 548" xmlns="http://www.w3.org/2000/svg" xmlns:xlink="http://www.w3.org/1999/xlink" overflow="hidden"><defs><clipPath id="clip0"><rect x="0" y="0" width="1153" height="548"/></clipPath><linearGradient x1="824.5" y1="323.453" x2="824.5" y2="403.442" gradientUnits="userSpaceOnUse" spreadMethod="reflect" id="fill1"><stop offset="0" stop-color="#D2D2D2"/><stop offset="0.5" stop-color="#C8C8C8"/><stop offset="1" stop-color="#C0C0C0"/></linearGradient><linearGradient x1="178" y1="356.449" x2="178" y2="511.426" gradientUnits="userSpaceOnUse" spreadMethod="reflect" id="fill2"><stop offset="0" stop-color="#D2D2D2"/><stop offset="0.5" stop-color="#C8C8C8"/><stop offset="1" stop-color="#C0C0C0"/></linearGradient><linearGradient x1="610" y1="7.4989" x2="610" y2="174.475" gradientUnits="userSpaceOnUse" spreadMethod="reflect" id="fill3"><stop offset="0" stop-color="#D2D2D2"/><stop offset="0.5" stop-color="#C8C8C8"/><stop offset="1" stop-color="#C0C0C0"/></linearGradient><linearGradient x1="610" y1="60.4912" x2="610" y2="163.476" gradientUnits="userSpaceOnUse" spreadMethod="reflect" id="fill4"><stop offset="0" stop-color="#A8B7DF"/><stop offset="0.5" stop-color="#9AABD9"/><stop offset="1" stop-color="#879ED7"/></linearGradient><linearGradient x1="825" y1="370.446" x2="825" y2="394.443" gradientUnits="userSpaceOnUse" spreadMethod="reflect" id="fill5"><stop offset="0" stop-color="#A8B7DF"/><stop offset="0.5" stop-color="#9AABD9"/><stop offset="1" stop-color="#879ED7"/></linearGradient><linearGradient x1="1054.5" y1="276.46" x2="1054.5" y2="340.451" gradientUnits="userSpaceOnUse" spreadMethod="reflect" id="fill6"><stop offset="0" stop-color="#B5D5A7"/><stop offset="0.5" stop-color="#AACE99"/><stop offset="1" stop-color="#9CCA86"/></linearGradient><linearGradient x1="179" y1="400.442" x2="179" y2="435.437" gradientUnits="userSpaceOnUse" spreadMethod="reflect" id="fill7"><stop offset="0" stop-color="#A8B7DF"/><stop offset="0.5" stop-color="#9AABD9"/><stop offset="1" stop-color="#879ED7"/></linearGradient><linearGradient x1="110.5" y1="458.434" x2="110.5" y2="500.428" gradientUnits="userSpaceOnUse" spreadMethod="reflect" id="fill8"><stop offset="0" stop-color="#B5D5A7"/><stop offset="0.5" stop-color="#AACE99"/><stop offset="1" stop-color="#9CCA86"/></linearGradient><linearGradient x1="247.5" y1="459.434" x2="247.5" y2="501.427" gradientUnits="userSpaceOnUse" spreadMethod="reflect" id="fill9"><stop offset="0" stop-color="#F7BDA4"/><stop offset="0.5" stop-color="#F5B195"/><stop offset="1" stop-color="#F8A581"/></linearGradient><linearGradient x1="1059.5" y1="349.449" x2="1059.5" y2="413.44" gradientUnits="userSpaceOnUse" spreadMethod="reflect" id="fill10"><stop offset="0" stop-color="#F7BDA4"/><stop offset="0.5" stop-color="#F5B195"/><stop offset="1" stop-color="#F8A581"/></linearGradient></defs><g clip-path="url(#clip0)"><rect x="0" y="0" width="1153" height="547.921" fill="#FFFFFF"/><rect x="684.5" y="323.453" width="280" height="79.9884" stroke="#A5A5A5" stroke-width="0.666763" stroke-miterlimit="8" fill="url(#fill1)"/><rect x="36.5" y="356.449" width="283" height="154.978" stroke="#A5A5A5" stroke-width="0.666763" stroke-miterlimit="8" fill="url(#fill2)"/><rect x="464.5" y="7.4989" width="291" height="166.976" stroke="#A5A5A5" stroke-width="0.666763" stroke-miterlimit="8" fill="url(#fill3)"/><text font-family="Arial,Arial_MSFontService,sans-serif" font-weight="400" font-size="13" transform="matrix(1 0 0 0.999855 516.741 27)">Public Server (Windows/Linux)<tspan font-size="13" x="-6.42096" y="16.0023">Domain: </tspan><tspan font-weight="700" font-size="13" x="46.7534" y="16.0023">myserver.example.org</tspan></text><path d="M477.5 77.6558C477.5 68.1761 485.186 60.4912 494.667 60.4912L725.333 60.4912C734.814 60.4912 742.5 68.1761 742.5 77.6558L742.5 146.312C742.5 155.791 734.814 163.476 725.333 163.476L494.667 163.476C485.186 163.476 477.5 155.791 477.5 146.312Z" stroke="#4472C4" stroke-width="0.666763" stroke-miterlimit="8" fill="url(#fill4)" fill-rule="evenodd"/><path d="M557 140.98 696.656 140.98" stroke="#000000" stroke-width="2.00029" stroke-miterlimit="8" fill="none" fill-rule="evenodd"/><text font-family="Arial,Arial_MSFontService,sans-serif" font-weight="400" font-size="11" transform="matrix(1 0 0 0.999855 479.9 117)">TCP Listener (SSL),<tspan font-size="11" x="13.922" y="13.0019">Port 25000 </tspan></text><path d="" transform="matrix(1 0 0 0.999855 549.497 130)"/><path d="M10.6401-4.56543C10.7547-4.5332 10.8595-4.47949 10.9543-4.4043 11.0492-4.3291 11.1307-4.24227 11.1987-4.1438 11.2668-4.04533 11.3196-3.9388 11.3572-3.82422 11.3948-3.70964 11.4136-3.59326 11.4136-3.4751L11.4136 1.15479C11.4136 1.31234 11.3831 1.46183 11.3223 1.60327 11.2614 1.74471 11.1781 1.86825 11.0725 1.97388 10.9669 2.07951 10.8433 2.16276 10.7019 2.22363 10.5605 2.28451 10.411 2.31494 10.2534 2.31494L2.53516 2.31494C2.37402 2.31494 2.22363 2.28451 2.08398 2.22363 1.94434 2.16276 1.8217 2.07951 1.71606 1.97388 1.61043 1.86825 1.52718 1.74561 1.46631 1.60596 1.40544 1.46631 1.375 1.31592 1.375 1.15479L1.375-3.4751C1.375-3.59684 1.3938-3.71501 1.4314-3.82959 1.46899-3.94417 1.52181-4.04891 1.58984-4.1438 1.65788-4.23869 1.73934-4.32283 1.83423-4.39624 1.92912-4.46965 2.03385-4.52783 2.14844-4.5708L2.14844-5.79004C2.14844-6.18034 2.19857-6.55631 2.29883-6.91797 2.39909-7.27962 2.54142-7.618 2.72583-7.93311 2.91024-8.24821 3.13224-8.53467 3.39185-8.79248 3.65145-9.05029 3.93791-9.2714 4.25122-9.45581 4.56453-9.64022 4.90202-9.78345 5.26367-9.8855 5.62533-9.98755 6.0013-10.0386 6.3916-10.0386 6.7819-10.0386 7.15788-9.98755 7.51953-9.8855 7.88118-9.78345 8.21956-9.64022 8.53467-9.45581 8.84977-9.2714 9.13623-9.05029 9.39404-8.79248 9.65186-8.53467 9.87296-8.24821 10.0574-7.93311 10.2418-7.618 10.385-7.27962 10.4871-6.91797 10.5891-6.55631 10.6401-6.18034 10.6401-5.79004Z" transform="matrix(1 0 0 0.999855 549.497 130)"/><path d="M10.2534-3.86182C10.3573-3.86182 10.4477-3.82332 10.5247-3.74634 10.6016-3.66935 10.6401-3.57894 10.6401-3.4751L10.6401 1.15479C10.6401 1.25863 10.6016 1.34904 10.5247 1.42603 10.4477 1.50301 10.3573 1.5415 10.2534 1.5415L9.43701 0.520996 9.27588-2.91113ZM2.53516-3.86182 3.18506-3.20117 3.33008 0.859375 2.53516 1.5415C2.42773 1.5415 2.33643 1.50391 2.26123 1.42871 2.18604 1.35352 2.14844 1.26221 2.14844 1.15479L2.14844-3.4751C2.14844-3.58252 2.18604-3.67383 2.26123-3.74902 2.33643-3.82422 2.42773-3.86182 2.53516-3.86182Z" fill="#EBA300" transform="matrix(1 0 0 0.999855 549.497 130)"/><path d="M6.3916-9.26514C6.71029-9.26514 7.01823-9.22396 7.31543-9.1416 7.61263-9.05924 7.88924-8.94198 8.14526-8.78979 8.40129-8.63761 8.63493-8.45589 8.84619-8.24463 9.05745-8.03337 9.23918-7.79972 9.39136-7.5437 9.54354-7.28768 9.66081-7.01107 9.74316-6.71387 9.82552-6.41667 9.8667-6.10872 9.8667-5.79004L9.8667-2.96484 9.09326-2.96484 9.09326-5.79004C9.09326-6.16243 9.02254-6.51245 8.8811-6.84009 8.73966-7.16772 8.5463-7.45418 8.30103-7.69946 8.05575-7.94474 7.76929-8.1381 7.44165-8.27954 7.11401-8.42098 6.764-8.4917 6.3916-8.4917 6.01921-8.4917 5.66919-8.42098 5.34155-8.27954 5.01392-8.1381 4.72746-7.94474 4.48218-7.69946 4.2369-7.45418 4.04354-7.16772 3.9021-6.84009 3.76066-6.51245 3.68994-6.16243 3.68994-5.79004L3.68994-2.7876 2.9165-2.7876 2.9165-5.79004C2.9165-6.10872 2.95768-6.41667 3.04004-6.71387 3.1224-7.01107 3.23966-7.28768 3.39185-7.5437 3.54403-7.79972 3.72575-8.03337 3.93701-8.24463 4.14827-8.45589 4.38192-8.63761 4.63794-8.78979 4.89396-8.94198 5.17057-9.05924 5.46777-9.1416 5.76497-9.22396 6.07292-9.26514 6.3916-9.26514Z" fill="#CCCCCC" transform="matrix(1 0 0 0.999855 549.497 130)"/><path d="M2.53516-3.86182 10.2534-3.86182 10.2534 1.5415 2.53516 1.5415Z" fill="#FFC83D" transform="matrix(1 0 0 0.999855 549.497 130)"/><text font-family="Arial,Arial_MSFontService,sans-serif" font-weight="700" font-size="12" transform="matrix(1 0 0 0.999855 553.164 82)">TcpTunnel<tspan font-size="12" x="64.0093" y="0">(Gateway)</tspan></text><path d="M730.5 78.9886 762.5 78.9886 762.5 74.4892 771.5 83.488 762.5 92.4866 762.5 87.9873 730.5 87.9873Z" stroke="#2F528F" stroke-width="1.33353" stroke-miterlimit="8" fill="#4472C4" fill-rule="evenodd"/><text font-family="Arial,Arial_MSFontService,sans-serif" font-weight="400" font-size="11" transform="matrix(1 0 0 0.999855 784 85)">-<tspan font-size="11" x="18.0026" y="0">Listen on: Port 25000 with SSL Cert</tspan><tspan font-size="11" x="0" y="13.0019">-</tspan><tspan font-size="11" x="18.0026" y="13.0019">Session ID: 10,</tspan><tspan font-size="11" x="18.0026" y="26.0038">Proxy</tspan><tspan font-size="11" x="45.3398" y="26.0038">-</tspan><tspan font-size="11" x="48.8404" y="26.0038">Server Password: </tspan><tspan font-size="11" x="136.353" y="26.0038">abc</tspan><tspan font-size="11" x="153.689" y="26.0038">,</tspan><tspan font-size="11" x="18.0026" y="39.0056">Proxy</tspan><tspan font-size="11" x="45.3398" y="39.0056">-</tspan><tspan font-size="11" x="48.8404" y="39.0056">Client Password: </tspan><tspan font-size="11" x="132.186" y="39.0056">xyz</tspan><tspan font-size="12" x="-4.11084" y="254.037">PC/IoT Device</tspan><tspan font-size="12" x="-39.7827" y="268.039">IP (private): 192.168.40.100</tspan></text><path d="M692.5 374.446C692.5 372.237 694.291 370.446 696.5 370.446L953.5 370.446C955.709 370.446 957.5 372.237 957.5 374.446L957.5 390.444C957.5 392.652 955.709 394.443 953.5 394.443L696.5 394.443C694.291 394.443 692.5 392.652 692.5 390.444Z" stroke="#4472C4" stroke-width="0.666763" stroke-miterlimit="8" fill="url(#fill5)" fill-rule="evenodd"/><text font-family="Arial,Arial_MSFontService,sans-serif" font-weight="700" font-size="12" transform="matrix(1 0 0 0.999855 749.326 387)">TcpTunnel<tspan font-size="12" x="64.0092" y="0">(Proxy</tspan><tspan font-size="12" x="101.348" y="0">-</tspan><tspan font-size="12" x="105.349" y="0">Client)</tspan></text><path d="M650.5 300.957C650.5 281.906 665.946 266.462 685 266.462L1102 266.462C1121.05 266.462 1136.5 281.906 1136.5 300.957L1136.5 438.936C1136.5 457.987 1121.05 473.432 1102 473.432L685 473.432C665.946 473.432 650.5 457.987 650.5 438.936Z" stroke="#000000" stroke-width="1.33353" stroke-miterlimit="8" stroke-dasharray="5.3341 4.00058 1.33353 4.00058" fill="none" fill-rule="evenodd"/><text font-family="Arial,Arial_MSFontService,sans-serif" font-weight="400" font-size="14" transform="matrix(1 0 0 0.999855 712.731 261)">Firewall/NAT<tspan font-size="12" x="2.29779" y="21.003">Private Network: 192.168.40.x</tspan></text><path d="M1003.5 308.455 1019.5 276.46 1089.5 276.46 1105.5 308.455 1089.5 340.451 1019.5 340.451Z" stroke="#70AD47" stroke-width="0.666763" stroke-miterlimit="8" fill="url(#fill6)" fill-rule="evenodd"/><text font-family="Arial,Arial_MSFontService,sans-serif" font-weight="400" font-size="14" transform="matrix(1 0 0 0.999855 1016.57 305)">VNC Server<tspan font-size="9" x="-0.833435" y="12.0017">IP: 192.168.40.80,</tspan><tspan font-size="9" x="15.8356" y="23.0033">Port: 5900</tspan><tspan font-size="12" x="-855.096" y="67.0097">PC</tspan><tspan font-size="12" x="-917.772" y="81.0117">IP (private): 192.168.10.10</tspan></text><path d="M46.5 406.275C46.5 403.053 49.1117 400.442 52.3335 400.442L305.667 400.442C308.888 400.442 311.5 403.053 311.5 406.275L311.5 429.604C311.5 432.826 308.888 435.437 305.667 435.437L52.3335 435.437C49.1117 435.437 46.5 432.826 46.5 429.604Z" stroke="#4472C4" stroke-width="0.666763" stroke-miterlimit="8" fill="url(#fill7)" fill-rule="evenodd"/><text font-family="Arial,Arial_MSFontService,sans-serif" font-weight="700" font-size="12" transform="matrix(1 0 0 0.999855 47.8807 421)">TcpTunnel<tspan font-size="12" x="64.0092" y="0">(Proxy</tspan>-Server)</text><path d="M10.5 309.956C10.5 285.935 29.9759 266.462 54.0006 266.462L582.999 266.462C607.024 266.462 626.5 285.935 626.5 309.956L626.5 483.929C626.5 507.951 607.024 527.424 582.999 527.424L54.0006 527.424C29.9759 527.424 10.5 507.951 10.5 483.929Z" stroke="#000000" stroke-width="1.33353" stroke-miterlimit="8" stroke-dasharray="5.3341 4.00058 1.33353 4.00058" fill="none" fill-rule="evenodd"/><text font-family="Arial,Arial_MSFontService,sans-serif" font-weight="400" font-size="14" transform="matrix(1 0 0 0.999855 64.2657 261)">Firewall/NAT<tspan font-size="12" x="2.30233" y="23.0033">Private Network: 192.168.10.x</tspan></text><path d="M44.5 465.433C44.5 461.567 47.6341 458.434 51.5001 458.434L169.5 458.434C173.366 458.434 176.5 461.567 176.5 465.433L176.5 493.428C176.5 497.294 173.366 500.428 169.5 500.428L51.5001 500.428C47.6341 500.428 44.5 497.294 44.5 493.428Z" stroke="#70AD47" stroke-width="0.666763" stroke-miterlimit="8" fill="url(#fill8)" fill-rule="evenodd"/><text font-family="Arial,Arial_MSFontService,sans-serif" font-weight="700" font-size="12" transform="matrix(1 0 0 0.999855 78.2071 476)">VNC Client<tspan font-weight="400" font-size="9" x="-19.0028" y="11.0016">Connect: localhost:5920</tspan></text><path d="M308.5 407.941 347.5 407.941 347.5 403.442 356.5 412.44 347.5 421.439 347.5 416.94 308.5 416.94Z" stroke="#2F528F" stroke-width="1.33353" stroke-miterlimit="8" fill="#4472C4" fill-rule="evenodd"/><text font-family="Arial,Arial_MSFontService,sans-serif" font-weight="400" font-size="11" transform="matrix(1 0 0 0.999855 368.733 412)">-<tspan font-size="11" x="6.50095" y="0">Gateway </tspan><tspan font-size="11" x="51.8408" y="0">Host+</tspan><tspan font-size="11" x="80.0116" y="0">Port</tspan><tspan font-size="11" x="99.6811" y="0">: myserver</tspan>.example.org:25000<tspan font-size="11" x="0" y="13.0019">-</tspan><tspan font-size="11" x="6.50095" y="13.0019">Session ID: 10, Password: </tspan><tspan font-size="11" x="135.353" y="13.0019">abc</tspan><tspan font-size="11" x="0" y="26.0038">-</tspan><tspan font-size="11" x="6.50095" y="26.0038">Forward: Port 5920 to 192.168.40.80:5900</tspan><tspan font-size="11" x="0" y="39.0056">-</tspan><tspan font-size="11" x="6.50095" y="39.0056">Forward: Port 2200 to 192.168.40.90:22</tspan></text><path d="M0.572829-0.819675 47.9345 32.2789 46.7888 33.9183-0.572829 0.819675ZM48.5601 29.0561 52.8261 36.9175 43.9774 35.6135Z" fill="#385723" transform="matrix(1.00014 0 0 -1 167 462.856)"/><text font-family="Arial,Arial_MSFontService,sans-serif" font-weight="400" font-size="9" transform="matrix(1 0 0 0.999855 199.797 418)">Port 5920</text><path d="M198 423.939 242.625 423.939" stroke="#000000" stroke-width="2.00029" stroke-miterlimit="8" fill="none" fill-rule="evenodd"/><text font-family="Arial,Arial_MSFontService,sans-serif" font-weight="700" font-size="9" transform="matrix(0.783379 -0.621365 0.621634 0.783266 304.288 354)">myserver.example.org:25000          <tspan font-weight="400" font-size="9" x="154.718" y="0.173859">Session ID: 10, </tspan><tspan font-weight="400" font-size="9" x="220.717" y="0.186409">Password: </tspan><tspan font-weight="400" font-size="9" x="267.083" y="-0.0560913">abc</tspan></text><path d="M905 388.444 905 412.44 909.5 412.44 900.5 421.439 891.5 412.44 896 412.44 896 388.444Z" stroke="#2F528F" stroke-width="1.33333" stroke-miterlimit="8" fill="#4472C4" fill-rule="evenodd"/><text font-family="Arial,Arial_MSFontService,sans-serif" font-weight="400" font-size="11" transform="matrix(1 0 0 0.999855 879.714 431)">-<tspan font-size="11" x="6.50092" y="0">Gateway </tspan><tspan font-size="11" x="51.8408" y="0">Host+</tspan><tspan font-size="11" x="80.0115" y="0">Port</tspan><tspan font-size="11" x="99.681" y="0">: myserver</tspan><tspan font-size="11" x="149.522" y="0">.example.org:25000</tspan><tspan font-size="11" x="0" y="13.0019">-</tspan><tspan font-size="11" x="6.50092" y="13.0019">Session ID: 10, Password: </tspan><tspan font-size="11" x="135.353" y="13.0019">xyz</tspan></text><path d="M0 0 0.000104987 22.2478" stroke="#000000" stroke-width="1.33333" stroke-miterlimit="8" fill="none" fill-rule="evenodd" transform="matrix(1.00014 0 0 -1 591.5 139.731)"/><path d="M0 0 0.000104987 23.7203" stroke="#000000" stroke-width="1.33333" stroke-miterlimit="8" fill="none" fill-rule="evenodd" transform="matrix(1.00014 0 0 -1 645.5 141.203)"/><path d="M597.668 113.983 638.584 113.984 638.584 115.984 597.668 115.983ZM599.001 118.983 591 114.983 599.001 110.983ZM637.25 110.984 645.251 114.984 637.25 118.984Z"/><path d="M0.466931-0.884293 91.703 47.2909 90.7692 49.0595-0.466931 0.884293ZM91.9248 44.0155 97.1314 51.2881 88.1894 51.0898Z" fill="#385723" transform="matrix(1.00014 0 0 -1 909 377.241)"/><path d="" transform="matrix(1 0 0 0.999855 630.525 204)"/><path d="M10.6401-4.56543C10.7547-4.5332 10.8595-4.47949 10.9543-4.4043 11.0492-4.3291 11.1307-4.24227 11.1987-4.1438 11.2668-4.04533 11.3196-3.9388 11.3572-3.82422 11.3948-3.70964 11.4136-3.59326 11.4136-3.4751L11.4136 1.15479C11.4136 1.31234 11.3831 1.46183 11.3223 1.60327 11.2614 1.74471 11.1781 1.86825 11.0725 1.97388 10.9669 2.07951 10.8433 2.16276 10.7019 2.22363 10.5605 2.28451 10.411 2.31494 10.2534 2.31494L2.53516 2.31494C2.37402 2.31494 2.22363 2.28451 2.08398 2.22363 1.94434 2.16276 1.8217 2.07951 1.71606 1.97388 1.61043 1.86825 1.52718 1.74561 1.46631 1.60596 1.40544 1.46631 1.375 1.31592 1.375 1.15479L1.375-3.4751C1.375-3.59684 1.3938-3.71501 1.4314-3.82959 1.46899-3.94417 1.52181-4.04891 1.58984-4.1438 1.65788-4.23869 1.73934-4.32283 1.83423-4.39624 1.92912-4.46965 2.03385-4.52783 2.14844-4.5708L2.14844-5.79004C2.14844-6.18034 2.19857-6.55631 2.29883-6.91797 2.39909-7.27962 2.54142-7.618 2.72583-7.93311 2.91024-8.24821 3.13224-8.53467 3.39185-8.79248 3.65145-9.05029 3.93791-9.2714 4.25122-9.45581 4.56453-9.64022 4.90202-9.78345 5.26367-9.8855 5.62533-9.98755 6.0013-10.0386 6.3916-10.0386 6.7819-10.0386 7.15788-9.98755 7.51953-9.8855 7.88118-9.78345 8.21956-9.64022 8.53467-9.45581 8.84977-9.2714 9.13623-9.05029 9.39404-8.79248 9.65186-8.53467 9.87296-8.24821 10.0574-7.93311 10.2418-7.618 10.385-7.27962 10.4871-6.91797 10.5891-6.55631 10.6401-6.18034 10.6401-5.79004Z" transform="matrix(1 0 0 0.999855 630.525 204)"/><path d="M10.2534-3.86182C10.3573-3.86182 10.4477-3.82332 10.5247-3.74634 10.6016-3.66935 10.6401-3.57894 10.6401-3.4751L10.6401 1.15479C10.6401 1.25863 10.6016 1.34904 10.5247 1.42603 10.4477 1.50301 10.3573 1.5415 10.2534 1.5415L9.43701 0.520996 9.27588-2.91113ZM2.53516-3.86182 3.18506-3.20117 3.33008 0.859375 2.53516 1.5415C2.42773 1.5415 2.33643 1.50391 2.26123 1.42871 2.18604 1.35352 2.14844 1.26221 2.14844 1.15479L2.14844-3.4751C2.14844-3.58252 2.18604-3.67383 2.26123-3.74902 2.33643-3.82422 2.42773-3.86182 2.53516-3.86182Z" fill="#EBA300" transform="matrix(1 0 0 0.999855 630.525 204)"/><path d="M6.3916-9.26514C6.71029-9.26514 7.01823-9.22396 7.31543-9.1416 7.61263-9.05924 7.88924-8.94198 8.14526-8.78979 8.40129-8.63761 8.63493-8.45589 8.84619-8.24463 9.05745-8.03337 9.23918-7.79972 9.39136-7.5437 9.54354-7.28768 9.66081-7.01107 9.74316-6.71387 9.82552-6.41667 9.8667-6.10872 9.8667-5.79004L9.8667-2.96484 9.09326-2.96484 9.09326-5.79004C9.09326-6.16243 9.02254-6.51245 8.8811-6.84009 8.73966-7.16772 8.5463-7.45418 8.30103-7.69946 8.05575-7.94474 7.76929-8.1381 7.44165-8.27954 7.11401-8.42098 6.764-8.4917 6.3916-8.4917 6.01921-8.4917 5.66919-8.42098 5.34155-8.27954 5.01392-8.1381 4.72746-7.94474 4.48218-7.69946 4.2369-7.45418 4.04354-7.16772 3.9021-6.84009 3.76066-6.51245 3.68994-6.16243 3.68994-5.79004L3.68994-2.7876 2.9165-2.7876 2.9165-5.79004C2.9165-6.10872 2.95768-6.41667 3.04004-6.71387 3.1224-7.01107 3.23966-7.28768 3.39185-7.5437 3.54403-7.79972 3.72575-8.03337 3.93701-8.24463 4.14827-8.45589 4.38192-8.63761 4.63794-8.78979 4.89396-8.94198 5.17057-9.05924 5.46777-9.1416 5.76497-9.22396 6.07292-9.26514 6.3916-9.26514Z" fill="#CCCCCC" transform="matrix(1 0 0 0.999855 630.525 204)"/><path d="M2.53516-3.86182 10.2534-3.86182 10.2534 1.5415 2.53516 1.5415Z" fill="#FFC83D" transform="matrix(1 0 0 0.999855 630.525 204)"/><path d="" transform="matrix(1 0 0 0.999855 406.865 258)"/><path d="M10.6401-4.56543C10.7547-4.5332 10.8595-4.47949 10.9543-4.4043 11.0492-4.3291 11.1307-4.24227 11.1987-4.1438 11.2668-4.04533 11.3196-3.9388 11.3572-3.82422 11.3948-3.70964 11.4136-3.59326 11.4136-3.4751L11.4136 1.15479C11.4136 1.31234 11.3831 1.46183 11.3223 1.60327 11.2614 1.74471 11.1781 1.86825 11.0725 1.97388 10.9669 2.07951 10.8433 2.16276 10.7019 2.22363 10.5605 2.28451 10.411 2.31494 10.2534 2.31494L2.53516 2.31494C2.37402 2.31494 2.22363 2.28451 2.08398 2.22363 1.94434 2.16276 1.8217 2.07951 1.71606 1.97388 1.61043 1.86825 1.52718 1.74561 1.46631 1.60596 1.40544 1.46631 1.375 1.31592 1.375 1.15479L1.375-3.4751C1.375-3.59684 1.3938-3.71501 1.4314-3.82959 1.46899-3.94417 1.52181-4.04891 1.58984-4.1438 1.65788-4.23869 1.73934-4.32283 1.83423-4.39624 1.92912-4.46965 2.03385-4.52783 2.14844-4.5708L2.14844-5.79004C2.14844-6.18034 2.19857-6.55631 2.29883-6.91797 2.39909-7.27962 2.54142-7.618 2.72583-7.93311 2.91024-8.24821 3.13224-8.53467 3.39185-8.79248 3.65145-9.05029 3.93791-9.2714 4.25122-9.45581 4.56453-9.64022 4.90202-9.78345 5.26367-9.8855 5.62533-9.98755 6.0013-10.0386 6.3916-10.0386 6.7819-10.0386 7.15788-9.98755 7.51953-9.8855 7.88118-9.78345 8.21956-9.64022 8.53467-9.45581 8.84977-9.2714 9.13623-9.05029 9.39404-8.79248 9.65186-8.53467 9.87296-8.24821 10.0574-7.93311 10.2418-7.618 10.385-7.27962 10.4871-6.91797 10.5891-6.55631 10.6401-6.18034 10.6401-5.79004Z" transform="matrix(1 0 0 0.999855 406.865 258)"/><path d="M10.2534-3.86182C10.3573-3.86182 10.4477-3.82332 10.5247-3.74634 10.6016-3.66935 10.6401-3.57894 10.6401-3.4751L10.6401 1.15479C10.6401 1.25863 10.6016 1.34904 10.5247 1.42603 10.4477 1.50301 10.3573 1.5415 10.2534 1.5415L9.43701 0.520996 9.27588-2.91113ZM2.53516-3.86182 3.18506-3.20117 3.33008 0.859375 2.53516 1.5415C2.42773 1.5415 2.33643 1.50391 2.26123 1.42871 2.18604 1.35352 2.14844 1.26221 2.14844 1.15479L2.14844-3.4751C2.14844-3.58252 2.18604-3.67383 2.26123-3.74902 2.33643-3.82422 2.42773-3.86182 2.53516-3.86182Z" fill="#EBA300" transform="matrix(1 0 0 0.999855 406.865 258)"/><path d="M6.3916-9.26514C6.71029-9.26514 7.01823-9.22396 7.31543-9.1416 7.61263-9.05924 7.88924-8.94198 8.14526-8.78979 8.40129-8.63761 8.63493-8.45589 8.84619-8.24463 9.05745-8.03337 9.23918-7.79972 9.39136-7.5437 9.54354-7.28768 9.66081-7.01107 9.74316-6.71387 9.82552-6.41667 9.8667-6.10872 9.8667-5.79004L9.8667-2.96484 9.09326-2.96484 9.09326-5.79004C9.09326-6.16243 9.02254-6.51245 8.8811-6.84009 8.73966-7.16772 8.5463-7.45418 8.30103-7.69946 8.05575-7.94474 7.76929-8.1381 7.44165-8.27954 7.11401-8.42098 6.764-8.4917 6.3916-8.4917 6.01921-8.4917 5.66919-8.42098 5.34155-8.27954 5.01392-8.1381 4.72746-7.94474 4.48218-7.69946 4.2369-7.45418 4.04354-7.16772 3.9021-6.84009 3.76066-6.51245 3.68994-6.16243 3.68994-5.79004L3.68994-2.7876 2.9165-2.7876 2.9165-5.79004C2.9165-6.10872 2.95768-6.41667 3.04004-6.71387 3.1224-7.01107 3.23966-7.28768 3.39185-7.5437 3.54403-7.79972 3.72575-8.03337 3.93701-8.24463 4.14827-8.45589 4.38192-8.63761 4.63794-8.78979 4.89396-8.94198 5.17057-9.05924 5.46777-9.1416 5.76497-9.22396 6.07292-9.26514 6.3916-9.26514Z" fill="#CCCCCC" transform="matrix(1 0 0 0.999855 406.865 258)"/><path d="M2.53516-3.86182 10.2534-3.86182 10.2534 1.5415 2.53516 1.5415Z" fill="#FFC83D" transform="matrix(1 0 0 0.999855 406.865 258)"/><path d="M181.5 466.433C181.5 462.567 184.634 459.434 188.5 459.434L306.5 459.434C310.366 459.434 313.5 462.567 313.5 466.433L313.5 494.428C313.5 498.294 310.366 501.427 306.5 501.427L188.5 501.427C184.634 501.427 181.5 498.294 181.5 494.428Z" stroke="#ED7D31" stroke-width="0.666763" stroke-miterlimit="8" fill="url(#fill9)" fill-rule="evenodd"/><text font-family="Arial,Arial_MSFontService,sans-serif" font-weight="700" font-size="12" transform="matrix(1 0 0 0.999855 215.591 476)">SSH Client<tspan font-weight="400" font-size="9" x="-19.3361" y="11.0016">Connect: localhost:2200</tspan><tspan font-weight="400" font-size="9" x="39.7018" y="-58.0084">Port 2200</tspan></text><path d="M253 422.939 297.625 422.939" stroke="#000000" stroke-width="2.00029" stroke-miterlimit="8" fill="none" fill-rule="evenodd"/><path d="M1-2.86143e-06 1.00009 30.0236-0.999914 30.0236-1 2.86143e-06ZM4.00008 28.6903 0.000104987 36.6903-3.99992 28.6903Z" fill="#843C0C" transform="matrix(1.00014 0 0 -1 275 463.629)"/><path d="M1008.5 381.445 1024.5 349.449 1094.5 349.449 1110.5 381.445 1094.5 413.44 1024.5 413.44Z" stroke="#ED7D31" stroke-width="0.666763" stroke-miterlimit="8" fill="url(#fill10)" fill-rule="evenodd"/><text font-family="Arial,Arial_MSFontService,sans-serif" font-weight="400" font-size="14" transform="matrix(1 0 0 0.999855 1022.28 378)">SSH Server<tspan font-size="9" x="-1.25354" y="12.0017">IP: 192.168.40.90,</tspan><tspan font-size="9" x="20.583" y="23.0033">Port: 22</tspan></text><path d="M0.0638275-0.997961 77.2076 3.936 77.08 5.93192-0.0638275 0.997961ZM76.0685 0.857011 83.7968 5.35947 75.5579 8.8407Z" fill="#843C0C" transform="matrix(1.00014 0 0 -1 925 377.306)"/><text font-family="Arial,Arial_MSFontService,sans-serif" font-weight="400" font-size="9" transform="matrix(0.242243 0.969935 -0.970356 0.242208 672.064 180)">S. ID: 10, <tspan font-size="9" x="41.275" y="-0.140836">Pwd</tspan><tspan font-size="9" x="59.8004" y="-0.0103502">: </tspan><tspan font-size="9" x="64.9659" y="-0.0524673">xyz</tspan></text><path d="M265.895 391.237 569.533 152.636 563.694 145.207 590.233 148.388 587.052 174.923 581.212 167.495 277.574 406.095Z" stroke="#7C7C7C" stroke-width="1.33345" stroke-miterlimit="8" fill="#DEEBF7" fill-rule="evenodd"/><path d="M697.356 375.739 642.063 167.527 632.929 169.952 646.347 146.837 669.464 160.252 660.33 162.677 715.623 370.89Z" stroke="#7C7C7C" stroke-width="1.33335" stroke-miterlimit="8" fill="#DEEBF7" fill-rule="evenodd"/><path d="M647.966 166.717 650.036 174.445 648.103 174.962 646.034 167.235ZM651.588 180.241 653.657 187.969 651.725 188.486 649.656 180.758ZM655.21 193.764 657.279 201.492 655.347 202.009 653.277 194.282ZM658.831 207.288 660.901 215.016 658.969 215.533 656.899 207.805ZM662.453 220.811 664.523 228.539 662.59 229.057 660.521 221.329ZM666.075 234.335 668.144 242.063 666.212 242.58 664.142 234.852ZM669.696 247.859 671.766 255.586 669.834 256.104 667.764 248.376ZM673.318 261.382 675.388 269.11 673.455 269.627 671.386 261.9ZM676.94 274.906 679.009 282.634 677.077 283.151 675.008 275.423ZM680.562 288.429 682.631 296.157 680.699 296.674 678.629 288.947ZM684.183 301.953 686.253 309.681 684.321 310.198 682.251 302.47ZM687.805 315.476 689.875 323.204 687.942 323.722 685.873 315.994ZM691.427 329 693.496 336.728 691.564 337.245 689.495 329.517ZM695.048 342.524 697.118 350.251 695.186 350.769 693.116 343.041ZM698.67 356.047 700.411 362.547 698.479 363.064 696.738 356.564ZM702.964 360.482 701.169 369.245 695.235 362.552Z" fill="#843C0C"/><path d="M0.617155-0.786842 6.91189 4.15039 5.67758 5.72408-0.617155 0.786842ZM11.6329 7.85332 17.9277 12.7906 16.6934 14.3642 10.3986 9.42701ZM22.6487 16.4935 28.9435 21.4307 27.7092 23.0044 21.4144 18.0672ZM33.6645 25.1336 39.9593 30.0709 38.7249 31.6446 32.4302 26.7073ZM44.6803 33.7738 50.975 38.7111 49.7407 40.2847 43.446 35.3475ZM55.6961 42.414 61.9908 47.3512 60.7565 48.9249 54.4618 43.9877ZM66.7119 51.0541 73.0066 55.9914 71.7723 57.5651 65.4776 52.6278ZM77.7277 59.6943 84.0224 64.6315 82.7881 66.2052 76.4934 61.268ZM88.7434 68.3345 95.0382 73.2717 93.8039 74.8454 87.5091 69.9082ZM99.7592 76.9746 106.054 81.9119 104.82 83.4856 98.5249 78.5483ZM110.775 85.6148 117.07 90.552 115.835 92.1257 109.541 87.1885ZM121.791 94.255 128.086 99.1922 126.851 100.766 120.557 95.8286ZM132.807 102.895 139.101 107.832 137.867 109.406 131.572 104.469ZM143.822 111.535 150.117 116.473 148.883 118.046 142.588 113.109ZM154.838 120.175 161.133 125.113 159.899 126.686 153.604 121.749ZM165.854 128.816 172.149 133.753 170.914 135.327 164.62 130.389ZM176.87 137.456 183.164 142.393 181.93 143.967 175.635 139.029ZM187.886 146.096 194.18 151.033 192.946 152.607 186.651 147.67ZM198.901 154.736 205.196 159.673 203.962 161.247 197.667 156.31ZM209.917 163.376 216.212 168.313 214.978 169.887 208.683 164.95ZM220.933 172.016 227.228 176.954 225.993 178.527 219.699 173.59ZM231.949 180.657 238.243 185.594 237.009 187.167 230.714 182.23ZM242.964 189.297 249.259 194.234 248.025 195.808 241.73 190.87ZM253.98 197.937 260.275 202.874 259.041 204.448 252.746 199.511ZM264.996 206.577 271.291 211.514 270.056 213.088 263.762 208.151ZM276.012 215.217 282.307 220.154 281.072 221.728 274.777 216.791ZM287.028 223.857 293.322 228.795 292.088 230.368 285.793 225.431ZM294.31 225.757 298.137 233.842 289.373 232.052Z" fill="#843C0C" transform="matrix(1.00014 0 0 -1 278 398.818)"/><path d="M0.617155-0.786842 6.91189 4.15039 5.67758 5.72408-0.617155 0.786842ZM11.6329 7.85332 17.9277 12.7906 16.6934 14.3642 10.3986 9.42701ZM22.6487 16.4935 28.9435 21.4307 27.7092 23.0044 21.4144 18.0672ZM33.6645 25.1336 39.9593 30.0709 38.7249 31.6446 32.4302 26.7073ZM44.6803 33.7738 50.975 38.7111 49.7407 40.2847 43.446 35.3475ZM55.6961 42.414 61.9908 47.3512 60.7565 48.9249 54.4618 43.9877ZM66.7119 51.0541 73.0066 55.9914 71.7723 57.5651 65.4776 52.6278ZM77.7277 59.6943 84.0224 64.6315 82.7881 66.2052 76.4934 61.268ZM88.7434 68.3345 95.0382 73.2717 93.8039 74.8454 87.5091 69.9082ZM99.7592 76.9746 106.054 81.9119 104.82 83.4856 98.5249 78.5483ZM110.775 85.6148 117.07 90.552 115.835 92.1257 109.541 87.1885ZM121.791 94.255 128.086 99.1922 126.851 100.766 120.557 95.8286ZM132.807 102.895 139.101 107.832 137.867 109.406 131.572 104.469ZM143.822 111.535 150.117 116.473 148.883 118.046 142.588 113.109ZM154.838 120.175 161.133 125.113 159.899 126.686 153.604 121.749ZM165.854 128.816 172.149 133.753 170.914 135.327 164.62 130.389ZM176.87 137.456 183.164 142.393 181.93 143.967 175.635 139.029ZM187.886 146.096 194.18 151.033 192.946 152.607 186.651 147.67ZM198.901 154.736 205.196 159.673 203.962 161.247 197.667 156.31ZM209.917 163.376 216.212 168.313 214.978 169.887 208.683 164.95ZM220.933 172.016 227.228 176.954 225.993 178.527 219.699 173.59ZM231.949 180.657 238.243 185.594 237.009 187.167 230.714 182.23ZM242.964 189.297 249.259 194.234 248.025 195.808 241.73 190.87ZM253.98 197.937 260.275 202.874 259.041 204.448 252.746 199.511ZM264.996 206.577 271.291 211.514 270.056 213.088 263.762 208.151ZM276.012 215.217 282.307 220.154 281.072 221.728 274.777 216.791ZM287.028 223.857 293.322 228.795 292.088 230.368 285.793 225.431ZM294.31 225.757 298.137 233.842 289.373 232.052Z" fill="#385723" transform="matrix(1.00014 0 0 -1 273 391.819)"/><path d="M655.966 164.718 658.036 172.445 656.103 172.963 654.034 165.235ZM659.588 178.241 661.657 185.969 659.725 186.486 657.656 178.758ZM663.21 191.765 665.279 199.492 663.347 200.01 661.277 192.282ZM666.831 205.288 668.901 213.016 666.969 213.533 664.899 205.806ZM670.453 218.812 672.523 226.54 670.59 227.057 668.521 219.329ZM674.075 232.335 676.144 240.063 674.212 240.58 672.142 232.853ZM677.696 245.859 679.766 253.587 677.834 254.104 675.764 246.376ZM681.318 259.383 683.388 267.11 681.455 267.628 679.386 259.9ZM684.94 272.906 687.009 280.634 685.077 281.151 683.008 273.423ZM688.562 286.43 690.631 294.157 688.699 294.675 686.629 286.947ZM692.183 299.953 694.253 307.681 692.321 308.198 690.251 300.471ZM695.805 313.477 697.875 321.205 695.942 321.722 693.873 313.994ZM699.427 327 701.496 334.728 699.564 335.245 697.495 327.518ZM703.048 340.524 705.118 348.252 703.186 348.769 701.116 341.041ZM706.67 354.047 708.411 360.547 706.479 361.064 704.738 354.565ZM710.964 358.483 709.169 367.245 703.235 360.552Z" fill="#385723"/></g></svg>